<?xml version="1.0" encoding="UTF-8" standalone="no"?>
<!-- Created with Inkscape (http://www.inkscape.org/) -->

<svg
   xmlns:dc="http://purl.org/dc/elements/1.1/"
   xmlns:cc="http://creativecommons.org/ns#"
   xmlns:rdf="http://www.w3.org/1999/02/22-rdf-syntax-ns#"
   xmlns:svg="http://www.w3.org/2000/svg"
   xmlns="http://www.w3.org/2000/svg"
   xmlns:sodipodi="http://sodipodi.sourceforge.net/DTD/sodipodi-0.dtd"
   xmlns:inkscape="http://www.inkscape.org/namespaces/inkscape"
   width="48px"
   height="48px"
   viewBox="0 0 48 48"
   version="1.1"
   id="SVGRoot"
   sodipodi:docname="custom_ruby_map.svg"
   inkscape:version="0.92.3 (2405546, 2018-03-11)">
  <sodipodi:namedview
     id="base"
     pagecolor="#ffffff"
     bordercolor="#666666"
     borderopacity="1.0"
     inkscape:pageopacity="0.0"
     inkscape:pageshadow="2"
     inkscape:zoom="22.627417"
     inkscape:cx="22.26515"
     inkscape:cy="25.903466"
     inkscape:document-units="px"
     inkscape:current-layer="layer1"
     showgrid="true"
     inkscape:window-width="3440"
     inkscape:window-height="1417"
     inkscape:window-x="-8"
     inkscape:window-y="1435"
     inkscape:window-maximized="1"
     inkscape:grid-bbox="true"
     showguides="true"
     inkscape:snap-midpoints="true"
     inkscape:snap-nodes="true"
     inkscape:snap-grids="true"
     inkscape:snap-global="true"
     inkscape:snap-smooth-nodes="true" />
  <defs
     id="defs3719">
    <marker
       inkscape:stockid="Arrow2Mstart"
       orient="auto"
       refY="0"
       refX="0"
       id="Arrow2Mstart-6"
       style="overflow:visible"
       inkscape:isstock="true">
      <path
         inkscape:connector-curvature="0"
         id="path4627-1"
         style="fill:#000000;fill-opacity:1;fill-rule:evenodd;stroke:#000000;stroke-width:0.625;stroke-linejoin:round;stroke-opacity:1"
         d="M 8.7185878,4.0337352 -2.2072895,0.01601326 8.7185884,-4.0017078 c -1.7454984,2.3720609 -1.7354408,5.6174519 -6e-7,8.035443 z"
         transform="scale(0.6)" />
    </marker>
    <marker
       inkscape:stockid="Arrow2Mend"
       orient="auto"
       refY="0"
       refX="0"
       id="Arrow2Mend-7"
       style="overflow:visible"
       inkscape:isstock="true">
      <path
         inkscape:connector-curvature="0"
         id="path4630-5"
         style="fill:#000000;fill-opacity:1;fill-rule:evenodd;stroke:#000000;stroke-width:0.625;stroke-linejoin:round;stroke-opacity:1"
         d="M 8.7185878,4.0337352 -2.2072895,0.01601326 8.7185884,-4.0017078 c -1.7454984,2.3720609 -1.7354408,5.6174519 -6e-7,8.035443 z"
         transform="scale(-0.6)" />
    </marker>
  </defs>
  <metadata
     id="metadata3722">
    <rdf:RDF>
      <cc:Work
         rdf:about="">
        <dc:format>image/svg+xml</dc:format>
        <dc:type
           rdf:resource="http://purl.org/dc/dcmitype/StillImage" />
        <dc:title></dc:title>
        <dc:creator>
          <cc:Agent>
            <dc:title>Gabriel Chang</dc:title>
          </cc:Agent>
        </dc:creator>
      </cc:Work>
    </rdf:RDF>
  </metadata>
  <g
     inkscape:groupmode="layer"
     id="layer3"
     inkscape:label="Layer 3"
     style="opacity:0.71" />
  <g
     inkscape:groupmode="layer"
     id="layer2"
     inkscape:label="Layer 2"
     style="opacity:1">
    <path
       style="fill:none;stroke:#000000;stroke-width:2;stroke-linecap:round;stroke-linejoin:bevel;stroke-opacity:1;stroke-miterlimit:4;stroke-dasharray:none"
       d="M 24,42 13,40 2,42 V 5 L 13,3 24,5 35,3 46,5 V 42 L 35,40 24,42"
       id="path4590"
       inkscape:connector-curvature="0" />
  </g>
  <g
     id="layer1"
     inkscape:groupmode="layer"
     inkscape:label="Layer 1"
     style="opacity:1">
    <path
       style="opacity:1;fill:none;stroke:#000000;stroke-width:0.14011855;stroke-linecap:butt;stroke-linejoin:miter;stroke-miterlimit:4;stroke-dasharray:none;stroke-opacity:1;marker-start:url(#Arrow2Mstart-6);marker-end:url(#Arrow2Mend-7)"
       d="m 21.966045,20.952685 c 1.262259,-3.318087 2.581949,-3.918873 4.012618,0"
       id="path4601-8"
       inkscape:connector-curvature="0"
       sodipodi:nodetypes="cc" />
    <path
       style="fill:#000000;fill-opacity:1;stroke:#000000;stroke-width:0.6;stroke-linecap:butt;stroke-linejoin:miter;stroke-miterlimit:4;stroke-dasharray:2.4,1.2;stroke-opacity:1;stroke-dashoffset:0;opacity:0.75"
       d="M 24,42 V 5"
       id="path3745"
       inkscape:connector-curvature="0" />
    <path
       style="fill:none;stroke:#000000;stroke-width:0.6;stroke-linecap:butt;stroke-linejoin:miter;stroke-miterlimit:4;stroke-dasharray:2.4,1.2;stroke-opacity:1;stroke-dashoffset:0;opacity:0.75"
       d="M 13,40 V 3"
       id="path4560"
       inkscape:connector-curvature="0" />
    <path
       style="fill:none;stroke:#000000;stroke-width:0.6;stroke-linecap:butt;stroke-linejoin:miter;stroke-miterlimit:4;stroke-dasharray:2.4,1.2;stroke-opacity:1;stroke-dashoffset:0;opacity:0.75"
       d="M 35,40 C 35,38.27907 35,3 35,3"
       id="path4562"
       inkscape:connector-curvature="0" />
    <path
       style="fill:none;stroke:#000000;stroke-width:0.51408726;stroke-linecap:butt;stroke-linejoin:miter;stroke-miterlimit:4;stroke-dasharray:none;stroke-opacity:1"
       d="M 2,42 V 5"
       id="path4570"
       inkscape:connector-curvature="0" />
    <path
       style="fill:none;stroke:#000000;stroke-width:0.51408726;stroke-linecap:butt;stroke-linejoin:miter;stroke-miterlimit:4;stroke-dasharray:none;stroke-opacity:1"
       d="M 46,42 V 5"
       id="path4572"
       inkscape:connector-curvature="0" />
    <ellipse
       style="fill:none;fill-opacity:1;stroke:#000000;stroke-width:1;stroke-linecap:round;stroke-linejoin:bevel;stroke-miterlimit:4;stroke-dasharray:none;stroke-dashoffset:0;stroke-opacity:1"
       id="path4594"
       cx="30"
       cy="19.6"
       rx="3"
       ry="6.5999999" />
    <ellipse
       style="fill:none;fill-opacity:1;stroke:#000000;stroke-width:1;stroke-linecap:round;stroke-linejoin:bevel;stroke-miterlimit:4;stroke-dasharray:none;stroke-dashoffset:0;stroke-opacity:1"
       id="path4596"
       cx="18"
       cy="19.6"
       rx="3"
       ry="6.5999999" />
    <text
       xml:space="preserve"
       style="font-style:normal;font-weight:normal;font-size:40px;line-height:1.25;font-family:sans-serif;letter-spacing:0px;word-spacing:0px;fill:#000000;fill-opacity:1;stroke:none"
       x="16.505983"
       y="19.99118"
       id="text3628"><tspan
         sodipodi:role="line"
         id="tspan3626"
         x="16.505983"
         y="19.99118"
         style="font-style:normal;font-variant:normal;font-weight:normal;font-stretch:normal;font-size:2.66666675px;font-family:'DejaVu Sans Mono';-inkscape-font-specification:'DejaVu Sans Mono'">i</tspan></text>
    <text
       xml:space="preserve"
       style="font-style:normal;font-weight:normal;font-size:40px;line-height:1.25;font-family:sans-serif;letter-spacing:0px;word-spacing:0px;fill:#000000;fill-opacity:1;stroke:none"
       x="17.922161"
       y="19.953989"
       id="text3632"><tspan
         sodipodi:role="line"
         id="tspan3630"
         x="17.922161"
         y="19.953989"
         style="font-style:normal;font-variant:normal;font-weight:normal;font-stretch:normal;font-size:2.66666675px;font-family:'DejaVu Sans Mono';-inkscape-font-specification:'DejaVu Sans Mono'">e</tspan></text>
    <text
       xml:space="preserve"
       style="font-style:normal;font-weight:normal;font-size:40px;line-height:1.25;font-family:sans-serif;letter-spacing:0px;word-spacing:0px;fill:#000000;fill-opacity:1;stroke:none"
       x="28.109091"
       y="17.971817"
       id="text3636"><tspan
         sodipodi:role="line"
         id="tspan3634"
         x="28.109091"
         y="17.971817"
         style="font-style:normal;font-variant:normal;font-weight:normal;font-stretch:normal;font-size:2.66666675px;font-family:'DejaVu Sans Mono';-inkscape-font-specification:'DejaVu Sans Mono'">ɪd̪</tspan></text>
    <text
       xml:space="preserve"
       style="font-style:normal;font-weight:normal;font-size:40px;line-height:1.25;font-family:sans-serif;letter-spacing:0px;word-spacing:0px;fill:#000000;fill-opacity:1;stroke:none"
       x="28.012066"
       y="20.935385"
       id="text3642"><tspan
         sodipodi:role="line"
         id="tspan3640"
         x="28.012066"
         y="20.935385"
         style="font-style:normal;font-variant:normal;font-weight:normal;font-stretch:normal;font-size:2.66666675px;font-family:sans-serif;-inkscape-font-specification:sans-serif">ɛs̠t̪</tspan></text>
    <path
       style="color:#000000;text-indent:0;text-transform:none;direction:ltr;baseline-shift:baseline;display:inline;overflow:visible;visibility:visible;fill:#000000;fill-opacity:1;stroke:none;stroke-width:0.0961875;enable-background:accumulate"
       d="m 23.951983,34.471015 c 0,-0.42378 -0.343562,-0.7695 -0.7695,-0.7695 h -2.849555 l 0.04207,-0.01805 a 0.19239424,0.19239424 0 0 0 0.01502,-0.006 c 0.318049,-0.171433 0.49662,-0.361438 0.556084,-0.577124 0.05946,-0.215686 -0.01466,-0.412332 -0.09619,-0.553078 a 0.19239424,0.19239424 0 0 0 -0.006,-0.0091 c -0.103668,-0.15546 -0.237787,-0.297931 -0.429838,-0.351686 -0.192057,-0.05376 -0.40419,-0.01806 -0.667301,0.08417 a 0.19239424,0.19239424 0 0 0 -0.006,0.003 l -0.673314,0.288564 a 0.19239424,0.19239424 0 0 0 -0.006,0.003 c -1.153221,0.547664 -1.952115,1.073837 -2.542958,1.566052 a 0.19239424,0.19239424 0 0 0 -0.06913,0.147286 v 2.597061 a 0.19239424,0.19239424 0 0 0 0.03907,0.114216 c 0.205128,0.276901 0.554544,0.497071 0.970892,0.682331 0.416348,0.185259 0.902339,0.327084 1.373679,0.399778 0.471347,0.0727 0.928497,0.07964 1.304541,-0.02706 0.376038,-0.106692 0.689868,-0.365691 0.736436,-0.763488 a 0.19239424,0.19239424 0 0 0 0,-0.02104 c 0,-0.06817 -0.0031,-0.154326 -0.02104,-0.243475 -9.36e-4,-0.0048 -0.002,-0.0102 -0.003,-0.01504 0.117672,-0.04933 0.218691,-0.11568 0.279544,-0.201393 0.102084,-0.143799 0.131213,-0.290232 0.129255,-0.408798 -0.002,-0.112512 -0.03874,-0.218457 -0.102192,-0.30964 0.06204,-0.04105 0.123379,-0.08468 0.162317,-0.138269 0.103584,-0.142574 0.132264,-0.294329 0.132264,-0.41481 0,-0.09966 -0.02462,-0.196136 -0.06313,-0.288563 0.572365,-9.36e-4 1.384605,-6.84e-4 1.794496,0 0.426338,7.2e-4 0.769503,-0.345721 0.769503,-0.7695 z m -0.38475,0 c 0,0.22684 -0.153376,0.385154 -0.381744,0.384752 -0.504833,-8.64e-4 -1.741418,-0.0026 -2.215319,0 a 0.19239424,0.19239424 0 0 0 -0.08116,0.366714 c 0.08843,0.04254 0.177346,0.202581 0.177346,0.306597 0,0.04668 -0.01642,0.133344 -0.05711,0.18937 -0.0407,0.05603 -0.09134,0.09919 -0.231451,0.09919 a 0.19239424,0.19239424 0 0 0 -0.08417,0.363709 c 0.156506,0.07824 0.17874,0.120125 0.180352,0.216421 4.61e-4,0.02664 -0.01426,0.120067 -0.05711,0.180352 -0.04279,0.06029 -0.09502,0.105204 -0.231451,0.105204 a 0.19239424,0.19239424 0 0 0 -0.138269,0.321627 c -0.0043,-0.0046 0.01628,0.03364 0.02706,0.08718 0.0102,0.0507 0.01457,0.112512 0.01504,0.15931 -0.03204,0.222895 -0.174108,0.34359 -0.45689,0.423827 -0.28963,0.08218 -0.706612,0.08522 -1.142225,0.01802 -0.435614,-0.06719 -0.893053,-0.203005 -1.274485,-0.372729 -0.359405,-0.159919 -0.6378,-0.353539 -0.781524,-0.526024 v -2.416707 c 0.556801,-0.455115 1.298734,-0.94367 2.386654,-1.460846 0.0022,-10e-4 0.0038,-0.002 0.006,-0.003 l 0.661287,-0.282551 c 0.0028,-10e-4 0.0034,-0.002 0.006,-0.003 0.220261,-0.08458 0.346387,-0.09214 0.417816,-0.07214 0.07141,0.01999 0.127008,0.07267 0.207403,0.192376 10e-4,0.0014 0.002,0.0014 0.003,0.003 0.05233,0.09365 0.07466,0.171883 0.0541,0.24648 -0.0214,0.07759 -0.103776,0.197 -0.366714,0.339661 -0.0016,8.64e-4 -0.0013,0.002 -0.003,0.003 l -0.853664,0.375732 a 0.19239424,0.19239424 0 0 0 0.07814,0.369721 h 3.751313 c 0.228768,0 0.384748,0.157909 0.384748,0.384751 z"
       marker="none"
       visibility="visible"
       display="inline"
       overflow="visible"
       id="path2"
       inkscape:connector-curvature="0" />
    <path
       style="color:#000000;text-indent:0;text-transform:none;direction:ltr;baseline-shift:baseline;display:inline;overflow:visible;visibility:visible;opacity:1;fill:#000000;fill-opacity:1;stroke:none;stroke-width:0.0961875;enable-background:accumulate"
       d="m 24.048021,34.471015 c 0,-0.42378 0.343565,-0.7695 0.7695,-0.7695 h 2.849555 l -0.04207,-0.01805 a 0.19239424,0.19239424 0 0 1 -0.01504,-0.006 c -0.318048,-0.171433 -0.49662,-0.361438 -0.556084,-0.577124 -0.05947,-0.215686 0.01466,-0.412332 0.09619,-0.553078 a 0.19239424,0.19239424 0 0 1 0.006,-0.0091 c 0.103668,-0.15546 0.237788,-0.297931 0.429839,-0.351686 0.192058,-0.05376 0.404189,-0.01806 0.667301,0.08417 a 0.19239424,0.19239424 0 0 1 0.006,0.003 l 0.673313,0.288564 a 0.19239424,0.19239424 0 0 1 0.006,0.003 c 1.15322,0.547664 1.952114,1.073837 2.542957,1.566052 a 0.19239424,0.19239424 0 0 1 0.06913,0.147286 v 2.597061 a 0.19239424,0.19239424 0 0 1 -0.03908,0.114216 c -0.205129,0.276901 -0.554545,0.497071 -0.970892,0.682331 -0.41635,0.185259 -0.90234,0.327084 -1.37368,0.399778 -0.471347,0.0727 -0.928496,0.07964 -1.304543,-0.02706 -0.376037,-0.106692 -0.689868,-0.365691 -0.736434,-0.763488 a 0.19239424,0.19239424 0 0 1 0,-0.02104 c 0,-0.06817 0.0031,-0.154326 0.02104,-0.243475 9.36e-4,-0.0048 0.002,-0.0102 0.003,-0.01504 -0.117672,-0.04933 -0.218693,-0.11568 -0.279546,-0.201393 -0.102084,-0.143799 -0.131213,-0.290232 -0.129254,-0.408798 0.002,-0.112512 0.03874,-0.218457 0.102192,-0.30964 -0.06204,-0.04105 -0.123379,-0.08468 -0.162317,-0.138269 -0.103584,-0.142574 -0.132264,-0.294329 -0.132264,-0.41481 0,-0.09966 0.02462,-0.196136 0.06313,-0.288563 -0.572365,-9.36e-4 -1.384606,-6.84e-4 -1.794498,0 -0.426335,7.2e-4 -0.7695,-0.345721 -0.7695,-0.7695 z m 0.384752,0 c 0,0.22684 0.153375,0.385154 0.381744,0.384752 0.504834,-8.64e-4 1.741418,-0.0026 2.215317,0 a 0.19239424,0.19239424 0 0 1 0.08116,0.366714 c -0.08843,0.04254 -0.177345,0.202581 -0.177345,0.306597 0,0.04668 0.01642,0.133344 0.05711,0.18937 0.0407,0.05603 0.09134,0.09919 0.231451,0.09919 a 0.19239424,0.19239424 0 0 1 0.08417,0.363709 c -0.156507,0.07824 -0.17874,0.120125 -0.180353,0.216421 -4.61e-4,0.02664 0.01426,0.120067 0.05711,0.180352 0.04279,0.06029 0.09502,0.105204 0.231451,0.105204 a 0.19239424,0.19239424 0 0 1 0.138269,0.321627 c 0.0043,-0.0046 -0.01628,0.03364 -0.02706,0.08718 -0.0102,0.0507 -0.01457,0.112512 -0.01504,0.15931 0.03204,0.222895 0.174109,0.34359 0.45689,0.423827 0.28963,0.08218 0.706612,0.08522 1.142225,0.01802 0.435615,-0.06719 0.893053,-0.203005 1.274485,-0.372729 0.359405,-0.159919 0.6378,-0.353539 0.781524,-0.526024 v -2.416707 c -0.5568,-0.455115 -1.298733,-0.94367 -2.386653,-1.460846 -0.0022,-10e-4 -0.0038,-0.002 -0.006,-0.003 L 28.11194,32.631431 c -0.0028,-10e-4 -0.0034,-0.002 -0.006,-0.003 -0.220261,-0.08458 -0.346386,-0.09214 -0.417815,-0.07214 -0.07141,0.01999 -0.127022,0.07267 -0.207404,0.192376 -10e-4,0.0014 -0.002,0.0014 -0.003,0.003 -0.05233,0.09365 -0.07466,0.171883 -0.0541,0.24648 0.0214,0.07759 0.103776,0.197 0.366714,0.339661 0.0016,8.64e-4 0.0013,0.002 0.003,0.003 l 0.853664,0.375732 a 0.19239424,0.19239424 0 0 1 -0.07814,0.369721 h -3.751298 c -0.228768,0 -0.384749,0.157909 -0.384749,0.384751 z"
       marker="none"
       visibility="visible"
       display="inline"
       overflow="visible"
       id="path2-8"
       inkscape:connector-curvature="0" />
  </g>
</svg>
