<svg xmlns="http://www.w3.org/2000/svg" xmlns:xlink="http://www.w3.org/1999/xlink" version="1.1" x="0px" y="0px" viewBox="1 0 90 112.5" enable-background="new 0 0 90 90" xml:space="preserve">
  <path fill="none" d="M-72.232,62.138c0,28.794-12.367,59.443-31.754,70.899c-26.208,15.487-55.347-7.979-55.347-58.166  c0-50.187,29.139-82.172,55.347-74.348C-84.599,6.311-72.232,33.344-72.232,62.138z"/>
  <path fill="none" d="M198.65,185.282c29.673-12.755,6.12-29.139-40.854-37.3c-40.549-7.044-93.781-7.044-127.628,0  c-39.211,8.161-47.178,24.545-5.372,37.3C75.896,200.873,162.383,200.873,198.65,185.282z"/>
  <path d="M80.28,41.624c-0.601-3.782-3.522-6.952-8.089-9.212c-4.346-6.44-11.356-11.601-19.997-13.942  c-3.204-0.868-6.478-1.308-9.73-1.308c-0.263,0-0.519,0.022-0.78,0.028l-1.548-9.747l-0.07,0.012  c0.402-0.421,0.615-0.962,0.523-1.517c-0.171-1.039-1.329-1.713-2.585-1.504c-1.256,0.207-2.135,1.216-1.964,2.256  c0.095,0.575,0.498,1.031,1.047,1.296l1.494,9.405c-12.297,1.324-22.126,8.871-25.043,19.642c-0.58,2.143-0.821,4.306-0.814,6.454  c-2.389,2.988-3.506,6.183-3.004,9.347c0.761,4.785,5.224,8.597,12.058,10.815c4.15,4.05,9.521,7.223,15.762,8.914  c3.204,0.867,6.477,1.308,9.729,1.308c0.096,0,0.188-0.009,0.282-0.01l1.433,9.009c-0.462,0.431-0.713,1.009-0.615,1.602  c0.171,1.04,1.33,1.713,2.588,1.507c1.253-0.207,2.133-1.217,1.96-2.259c-0.084-0.507-0.405-0.926-0.854-1.197l-1.403-8.828  c12.523-1.174,22.573-8.783,25.531-19.698c0.22-0.809,0.377-1.623,0.509-2.437C79.525,48.327,80.805,44.921,80.28,41.624z   M51.45,21.217c6.273,1.699,11.588,5.016,15.513,9.22c-3.978-1.131-8.656-1.766-13.842-1.766c-3.04,0-6.166,0.229-9.309,0.657  l-1.27-7.991c0,0,0.046-0.555-1.212-0.498l-0.125-0.787c0.419-0.016,0.834-0.044,1.258-0.044  C45.465,20.009,48.487,20.415,51.45,21.217z M47.175,50.493c1.516-0.905,2.41-2.662,2.116-4.512  c-0.293-1.849-1.689-3.242-3.41-3.633l-1.34-8.438c1.911-0.219,3.807-0.334,5.66-0.334c10.327,0,18.077,3.386,18.848,8.232  c0.447,2.818-1.599,6.076-5.614,8.938c-3.932,2.802-9.281,4.954-15.238,6.167L47.175,50.493z M16.287,37.779  c2.687-9.922,12.034-16.8,23.661-17.671l0.148,0.933c-1.05,0.315-1.001,0.844-1.001,0.844l1.269,7.986  c-10.407,1.916-19.138,5.797-24.608,10.509C15.879,39.51,16.052,38.643,16.287,37.779z M23.137,37.704  c-3.916,2.707-6.523,5.896-7.294,9.201c-0.196-1.233-0.304-2.477-0.29-3.729C17.492,41.213,20.068,39.361,23.137,37.704z   M11.595,52.537c-0.315-1.984,0.194-4.004,1.333-5.979c0.63,4.965,2.715,9.745,5.972,13.889  C14.766,58.464,12.104,55.735,11.595,52.537z M41.086,34.418l1.36,8.563c-1.405,0.933-2.22,2.621-1.938,4.396  c0.282,1.773,1.581,3.126,3.205,3.578l1.039,6.538c-2.287,0.311-4.562,0.479-6.773,0.479c-10.328,0-18.079-3.386-18.85-8.232  C18.163,43.656,28.121,36.779,41.086,34.418z M19.465,56.332c3.909,3.192,10.495,5.118,18.513,5.118  c2.394,0,4.851-0.183,7.319-0.522l0.375,2.358c-2.971,0.394-5.923,0.604-8.796,0.604c-4.487,0-8.602-0.498-12.164-1.392  C22.643,60.644,20.879,58.567,19.465,56.332z M38.284,69.816c-3.798-1.029-7.244-2.657-10.252-4.705  c2.738,0.436,5.693,0.676,8.843,0.676c2.972,0,6.024-0.219,9.094-0.627l0.804,5.062l0.004-0.001c0,0-0.046,0.554,1.209,0.5  l0.045,0.28c-0.255,0.006-0.505,0.025-0.762,0.025C44.27,71.026,41.247,70.618,38.284,69.816z M49.292,70.96l-0.069-0.44  c1.053-0.318,1.004-0.846,1.004-0.846h-0.004l-0.805-5.064c8.673-1.578,16.545-4.601,22.291-8.624  c0.404-0.284,0.756-0.577,1.134-0.866C69.496,64.166,60.396,70.293,49.292,70.96z M73.722,51.916  c-0.918,0.853-1.932,1.693-3.102,2.515c-5.516,3.864-13.108,6.775-21.5,8.305l-0.38-2.389c6.489-1.304,12.36-3.667,16.713-6.768  c5.205-3.711,7.701-8.085,7.028-12.316c-0.819-5.169-6.382-9.014-14.538-10.493c4.309,0.361,8.147,1.212,11.318,2.443  C73.283,38.754,75.048,45.399,73.722,51.916z M77.018,47.97c0.06-4.202-0.97-8.343-2.886-12.173c2.383,1.726,3.906,3.8,4.274,6.125  C78.719,43.887,78.224,45.934,77.018,47.97z"/>
  <!-- <text x="0" y="105" fill="#000000" font-size="5px" font-weight="bold" font-family="'Helvetica Neue', Helvetica, Arial-Unicode, Arial, Sans-serif">Created by Marie-Louise Merser</text> -->
  <!-- <text x="0" y="110" fill="#000000" font-size="5px" font-weight="bold" font-family="'Helvetica Neue', Helvetica, Arial-Unicode, Arial, Sans-serif">from the Noun Project</text> -->
</svg>