<?xml version="1.0" encoding="UTF-8"?>
<!-- Created with Inkscape (http://www.inkscape.org/) -->
<svg id="SVGRoot" width="48px" height="48px" version="1.1" viewBox="0 0 48 48" xmlns="http://www.w3.org/2000/svg" xmlns:cc="http://creativecommons.org/ns#" xmlns:dc="http://purl.org/dc/elements/1.1/" xmlns:rdf="http://www.w3.org/1999/02/22-rdf-syntax-ns#">
 <defs>
  <marker id="Arrow2Mstart-6" overflow="visible" orient="auto">
   <path transform="scale(.6)" d="m8.7186 4.0337-10.926-4.0177 10.926-4.0177c-1.7455 2.3721-1.7354 5.6175-6e-7 8.0354z" fill-rule="evenodd" stroke="#000" stroke-linejoin="round" stroke-width=".625"/>
  </marker>
  <marker id="Arrow2Mend-7" overflow="visible" orient="auto">
   <path transform="scale(-.6)" d="m8.7186 4.0337-10.926-4.0177 10.926-4.0177c-1.7455 2.3721-1.7354 5.6175-6e-7 8.0354z" fill-rule="evenodd" stroke="#000" stroke-linejoin="round" stroke-width=".625"/>
  </marker>
 </defs>
 <metadata>
  <rdf:RDF>
   <cc:Work rdf:about="">
    <dc:format>image/svg+xml</dc:format>
    <dc:type rdf:resource="http://purl.org/dc/dcmitype/StillImage"/>
    <dc:title/>
    <dc:creator>
     <cc:Agent>
      <dc:title>Gabriel Chang</dc:title>
     </cc:Agent>
    </dc:creator>
   </cc:Work>
  </rdf:RDF>
 </metadata>
 <g>
  <path d="m24 42-11-2-11 2v-37l11-2 11 2 11-2 11 2v37l-11-2-11 2" fill="none" stroke="#000" stroke-linecap="round" stroke-linejoin="bevel" stroke-width="2"/>
 </g>
 <g>
  <path d="m21.966 20.953c1.2623-3.3181 2.5819-3.9189 4.0126 0" fill="none" marker-end="url(#Arrow2Mend-7)" marker-start="url(#Arrow2Mstart-6)" stroke="#000" stroke-width=".14012"/>
  <path d="m24 42v-37" opacity=".75" stroke="#000" stroke-dasharray="2.4,1.2" stroke-width=".6"/>
  <g fill="none" stroke="#000">
   <path d="m13 40v-37" opacity=".75" stroke-dasharray="2.4,1.2" stroke-width=".6"/>
   <path d="m35 40v-37" opacity=".75" stroke-dasharray="2.4,1.2" stroke-width=".6"/>
   <g>
    <path d="m2 42v-37" stroke-width=".51409"/>
    <path d="m46 42v-37" stroke-width=".51409"/>
    <ellipse cx="30" cy="19.6" rx="3" ry="6.6" stroke-linecap="round" stroke-linejoin="bevel"/>
    <ellipse cx="18" cy="19.6" rx="3" ry="6.6" stroke-linecap="round" stroke-linejoin="bevel"/>
   </g>
  </g>
  <g fill="#000000" font-family="sans-serif" font-size="40px" letter-spacing="0px" word-spacing="0px">
   <text x="16.505983" y="19.99118" style="line-height:1.25" xml:space="preserve"><tspan x="16.505983" y="19.99118" font-family="'DejaVu Sans Mono'" font-size="2.6667px">i</tspan></text>
   <text x="17.922161" y="19.953989" style="line-height:1.25" xml:space="preserve"><tspan x="17.922161" y="19.953989" font-family="'DejaVu Sans Mono'" font-size="2.6667px">e</tspan></text>
   <text x="28.109091" y="17.971817" style="line-height:1.25" xml:space="preserve"><tspan x="28.109091" y="17.971817" font-family="'DejaVu Sans Mono'" font-size="2.6667px">ɪd̪</tspan></text>
   <text x="28.012066" y="20.935385" style="line-height:1.25" xml:space="preserve"><tspan x="28.012066" y="20.935385" font-family="sans-serif" font-size="2.6667px">ɛs̠t̪</tspan></text>
  </g>
  <path d="m23.952 34.471c0-0.42378-0.34356-0.7695-0.7695-0.7695h-2.8496l0.04207-0.01805a0.19239 0.19239 0 0 0 0.01502-6e-3c0.31805-0.17143 0.49662-0.36144 0.55608-0.57712 0.05946-0.21569-0.01466-0.41233-0.09619-0.55308a0.19239 0.19239 0 0 0-6e-3 -0.0091c-0.10367-0.15546-0.23779-0.29793-0.42984-0.35169-0.19206-0.05376-0.40419-0.01806-0.6673 0.08417a0.19239 0.19239 0 0 0-6e-3 3e-3l-0.67331 0.28856a0.19239 0.19239 0 0 0-6e-3 3e-3c-1.1532 0.54766-1.9521 1.0738-2.543 1.5661a0.19239 0.19239 0 0 0-0.06913 0.14729v2.5971a0.19239 0.19239 0 0 0 0.03907 0.11422c0.20513 0.2769 0.55454 0.49707 0.97089 0.68233 0.41635 0.18526 0.90234 0.32708 1.3737 0.39978 0.47135 0.0727 0.9285 0.07964 1.3045-0.02706 0.37604-0.10669 0.68987-0.36569 0.73644-0.76349a0.19239 0.19239 0 0 0 0-0.02104c0-0.06817-0.0031-0.15433-0.02104-0.24348-9.36e-4 -0.0048-2e-3 -0.0102-3e-3 -0.01504 0.11767-0.04933 0.21869-0.11568 0.27954-0.20139 0.10208-0.1438 0.13121-0.29023 0.12926-0.4088-2e-3 -0.11251-0.03874-0.21846-0.10219-0.30964 0.06204-0.04105 0.12338-0.08468 0.16232-0.13827 0.10358-0.14257 0.13226-0.29433 0.13226-0.41481 0-0.09966-0.02462-0.19614-0.06313-0.28856 0.57236-9.36e-4 1.3846-6.84e-4 1.7945 0 0.42634 7.2e-4 0.7695-0.34572 0.7695-0.7695zm-0.38475 0c0 0.22684-0.15338 0.38515-0.38174 0.38475-0.50483-8.64e-4 -1.7414-0.0026-2.2153 0a0.19239 0.19239 0 0 0-0.08116 0.36671c0.08843 0.04254 0.17735 0.20258 0.17735 0.3066 0 0.04668-0.01642 0.13334-0.05711 0.18937-0.0407 0.05603-0.09134 0.09919-0.23145 0.09919a0.19239 0.19239 0 0 0-0.08417 0.36371c0.15651 0.07824 0.17874 0.12012 0.18035 0.21642 4.61e-4 0.02664-0.01426 0.12007-0.05711 0.18035-0.04279 0.06029-0.09502 0.1052-0.23145 0.1052a0.19239 0.19239 0 0 0-0.13827 0.32163c-0.0043-0.0046 0.01628 0.03364 0.02706 0.08718 0.0102 0.0507 0.01457 0.11251 0.01504 0.15931-0.03204 0.2229-0.17411 0.34359-0.45689 0.42383-0.28963 0.08218-0.70661 0.08522-1.1422 0.01802-0.43561-0.06719-0.89305-0.203-1.2745-0.37273-0.3594-0.15992-0.6378-0.35354-0.78152-0.52602v-2.4167c0.5568-0.45512 1.2987-0.94367 2.3867-1.4608 0.0022-1e-3 0.0038-2e-3 6e-3 -3e-3l0.66129-0.28255c0.0028-1e-3 0.0034-2e-3 6e-3 -3e-3 0.22026-0.08458 0.34639-0.09214 0.41782-0.07214 0.07141 0.01999 0.12701 0.07267 0.2074 0.19238 1e-3 0.0014 2e-3 0.0014 3e-3 3e-3 0.05233 0.09365 0.07466 0.17188 0.0541 0.24648-0.0214 0.07759-0.10378 0.197-0.36671 0.33966-0.0016 8.64e-4 -0.0013 2e-3 -3e-3 3e-3l-0.85366 0.37573a0.19239 0.19239 0 0 0 0.07814 0.36972h3.7513c0.22877 0 0.38475 0.15791 0.38475 0.38475z" color="#000000" overflow="visible" style="text-indent:0;text-transform:none"/>
  <path d="m24.048 34.471c0-0.42378 0.34356-0.7695 0.7695-0.7695h2.8496l-0.04207-0.01805a0.19239 0.19239 0 0 1-0.01504-6e-3c-0.31805-0.17143-0.49662-0.36144-0.55608-0.57712-0.05947-0.21569 0.01466-0.41233 0.09619-0.55308a0.19239 0.19239 0 0 1 6e-3 -0.0091c0.10367-0.15546 0.23779-0.29793 0.42984-0.35169 0.19206-0.05376 0.40419-0.01806 0.6673 0.08417a0.19239 0.19239 0 0 1 6e-3 3e-3l0.67331 0.28856a0.19239 0.19239 0 0 1 6e-3 3e-3c1.1532 0.54766 1.9521 1.0738 2.543 1.5661a0.19239 0.19239 0 0 1 0.06913 0.14729v2.5971a0.19239 0.19239 0 0 1-0.03908 0.11422c-0.20513 0.2769-0.55454 0.49707-0.97089 0.68233-0.41635 0.18526-0.90234 0.32708-1.3737 0.39978-0.47135 0.0727-0.9285 0.07964-1.3045-0.02706-0.37604-0.10669-0.68987-0.36569-0.73643-0.76349a0.19239 0.19239 0 0 1 0-0.02104c0-0.06817 0.0031-0.15433 0.02104-0.24348 9.36e-4 -0.0048 2e-3 -0.0102 3e-3 -0.01504-0.11767-0.04933-0.21869-0.11568-0.27955-0.20139-0.10208-0.1438-0.13121-0.29023-0.12925-0.4088 2e-3 -0.11251 0.03874-0.21846 0.10219-0.30964-0.06204-0.04105-0.12338-0.08468-0.16232-0.13827-0.10358-0.14257-0.13226-0.29433-0.13226-0.41481 0-0.09966 0.02462-0.19614 0.06313-0.28856-0.57236-9.36e-4 -1.3846-6.84e-4 -1.7945 0-0.42634 7.2e-4 -0.7695-0.34572-0.7695-0.7695zm0.38475 0c0 0.22684 0.15338 0.38515 0.38174 0.38475 0.50483-8.64e-4 1.7414-0.0026 2.2153 0a0.19239 0.19239 0 0 1 0.08116 0.36671c-0.08843 0.04254-0.17734 0.20258-0.17734 0.3066 0 0.04668 0.01642 0.13334 0.05711 0.18937 0.0407 0.05603 0.09134 0.09919 0.23145 0.09919a0.19239 0.19239 0 0 1 0.08417 0.36371c-0.15651 0.07824-0.17874 0.12012-0.18035 0.21642-4.61e-4 0.02664 0.01426 0.12007 0.05711 0.18035 0.04279 0.06029 0.09502 0.1052 0.23145 0.1052a0.19239 0.19239 0 0 1 0.13827 0.32163c0.0043-0.0046-0.01628 0.03364-0.02706 0.08718-0.0102 0.0507-0.01457 0.11251-0.01504 0.15931 0.03204 0.2229 0.17411 0.34359 0.45689 0.42383 0.28963 0.08218 0.70661 0.08522 1.1422 0.01802 0.43562-0.06719 0.89305-0.203 1.2745-0.37273 0.3594-0.15992 0.6378-0.35354 0.78152-0.52602v-2.4167c-0.5568-0.45512-1.2987-0.94367-2.3867-1.4608-0.0022-1e-3 -0.0038-2e-3 -6e-3 -3e-3l-0.66129-0.28255c-0.0028-1e-3 -0.0034-2e-3 -6e-3 -3e-3 -0.22026-0.08458-0.34639-0.09214-0.41782-0.07214-0.07141 0.01999-0.12702 0.07267-0.2074 0.19238-1e-3 0.0014-2e-3 0.0014-3e-3 3e-3 -0.05233 0.09365-0.07466 0.17188-0.0541 0.24648 0.0214 0.07759 0.10378 0.197 0.36671 0.33966 0.0016 8.64e-4 0.0013 2e-3 3e-3 3e-3l0.85366 0.37573a0.19239 0.19239 0 0 1-0.07814 0.36972h-3.7513c-0.22877 0-0.38475 0.15791-0.38475 0.38475z" color="#000000" overflow="visible" style="text-indent:0;text-transform:none"/>
 </g>
</svg>
